<svg aria-hidden="true" style="width:0;height:0;position:absolute;overflow:hidden" xmlns="http://www.w3.org/2000/svg"><defs><symbol id="icon-noun-search-1491345" viewBox="0 0 32 32"><path d="M13.21 3.328c-3.968 0-7.194 3.226-7.194 7.194s3.226 7.194 7.194 7.194a7.21 7.21 0 0 0 4.89-1.92l7.27 7.27c.051.051.128.077.179.077s.128-.026.179-.077a.248.248 0 0 0 0-.358l-7.27-7.296a7.092 7.092 0 0 0 1.92-4.89c.026-3.968-3.2-7.194-7.168-7.194zm4.787 11.853c-.026 0-.051.026-.077.051s-.026.051-.051.077a6.621 6.621 0 0 1-4.659 1.894c-3.686 0-6.682-2.995-6.682-6.682s2.995-6.682 6.682-6.682a6.687 6.687 0 0 1 6.682 6.682 6.624 6.624 0 0 1-1.894 4.659z"/><path d="M13.21 4.557c-.154 0-.256.102-.256.256s.102.256.256.256a5.458 5.458 0 0 1 5.453 5.453c0 .154.102.256.256.256s.256-.102.256-.256c0-3.277-2.688-5.965-5.965-5.965zM4.058 29.389a.67.67 0 0 1-.289.069c-.155 0-.278-.043-.369-.13s-.136-.205-.136-.354.045-.267.136-.354.214-.131.369-.131a.616.616 0 0 1 .289.069v.193a.441.441 0 0 0-.269-.087c-.086 0-.153.028-.202.083s-.074.131-.074.227.024.172.074.227.116.082.202.082a.441.441 0 0 0 .269-.088zM4.767 28.931a.294.294 0 0 0-.117-.027c-.058 0-.102.019-.133.056s-.046.089-.046.158v.323h-.224v-.7h.224v.115c.029-.046.061-.079.099-.1s.082-.032.134-.032l.024.001.039.004zM5.577 29.088v.064h-.524c.006.052.025.092.057.118s.078.039.136.039c.047 0 .095-.007.144-.021s.1-.035.152-.064v.172a.948.948 0 0 1-.318.061c-.127 0-.225-.032-.296-.096s-.105-.154-.105-.271c0-.114.034-.204.104-.269s.164-.099.284-.099c.11 0 .198.033.264.1s.099.155.099.265zm-.23-.074c0-.042-.013-.076-.037-.102s-.057-.039-.097-.039c-.043 0-.079.012-.106.036s-.044.059-.051.105zM6.06 29.125c-.047 0-.082.008-.106.024s-.035.039-.035.07c0 .029.009.051.029.067s.045.024.079.024c.042 0 .078-.015.106-.045s.044-.068.044-.114v-.026zm.342-.084v.399h-.225v-.104c-.03.043-.064.073-.101.093s-.083.029-.137.029c-.072 0-.131-.021-.176-.063s-.068-.097-.068-.165c0-.082.028-.142.084-.18s.145-.058.266-.058h.132v-.018c0-.035-.014-.061-.042-.077s-.072-.025-.131-.025c-.048 0-.093.005-.134.014s-.079.024-.114.043v-.171a1.4 1.4 0 0 1 .29-.035c.126 0 .217.025.273.075s.084.131.084.243zM6.855 28.541v.199h.231v.16h-.231v.297c0 .032.006.054.019.066s.038.017.076.017h.115v.16h-.191c-.089 0-.151-.018-.189-.055s-.055-.1-.055-.188V28.9h-.111v-.16h.111v-.199zM7.921 29.088v.064h-.524c.006.052.025.092.057.118s.078.039.136.039c.047 0 .095-.007.144-.021s.1-.035.152-.064v.172a.948.948 0 0 1-.318.061c-.127 0-.225-.032-.296-.096s-.105-.154-.105-.271c0-.114.034-.204.104-.269s.164-.099.284-.099c.11 0 .198.033.264.1s.099.155.099.265zm-.23-.074c0-.042-.013-.076-.037-.102s-.057-.039-.097-.039c-.043 0-.079.012-.106.036s-.044.059-.051.105zM8.566 28.842v-.375h.225v.973h-.225v-.101c-.031.041-.064.072-.101.091s-.08.029-.129.029c-.086 0-.157-.034-.212-.103s-.083-.157-.083-.264c0-.108.027-.196.083-.265s.126-.103.212-.103c.049 0 .091.01.129.029s.072.05.102.09zm-.147.454c.047 0 .084-.017.109-.052s.038-.086.038-.153-.013-.117-.038-.152-.062-.053-.109-.053c-.048 0-.084.018-.109.053s-.038.086-.038.152c0 .067.012.118.038.153s.062.052.109.052zM9.824 29.296c.048 0 .085-.017.11-.052s.038-.086.038-.153-.013-.117-.038-.152-.062-.053-.11-.053-.085.018-.111.053-.038.086-.038.152.012.117.038.152.063.053.111.053zm-.148-.454c.031-.04.065-.07.102-.09s.081-.029.129-.029c.087 0 .158.034.213.103s.083.157.083.265c0 .108-.028.196-.083.264s-.126.103-.213.103c-.049 0-.092-.01-.129-.029s-.071-.05-.102-.091v.101h-.224v-.973h.224zM10.276 28.74h.224l.189.475.16-.475h.224l-.294.766c-.03.078-.064.132-.104.163s-.091.047-.156.047h-.13v-.147h.07c.038 0 .066-.006.083-.019s.031-.033.041-.064l.006-.019zM11.659 28.507h.24v.933h-.24zM12.69 28.762v.182c-.03-.021-.061-.036-.091-.046s-.062-.015-.095-.015c-.063 0-.111.018-.146.055s-.052.087-.052.153c0 .065.017.116.052.153s.084.054.146.054a.303.303 0 0 0 .186-.061v.183a.666.666 0 0 1-.215.039c-.126 0-.225-.032-.296-.097s-.106-.155-.106-.27c0-.116.035-.206.106-.271s.17-.097.296-.097a.567.567 0 0 1 .215.039zM13.216 28.883c-.05 0-.088.018-.114.054s-.039.087-.039.154.013.119.039.154a.134.134 0 0 0 .114.053c.049 0 .086-.017.111-.053s.039-.087.039-.154-.013-.119-.039-.154a.129.129 0 0 0-.111-.054zm0-.16c.12 0 .214.033.282.098s.101.155.101.27c0 .115-.034.205-.101.27s-.162.097-.282.097c-.121 0-.216-.032-.284-.097s-.102-.155-.102-.27c0-.115.034-.205.102-.27s.162-.098.284-.098zM14.466 29.014v.426h-.225v-.326c0-.06-.001-.102-.004-.125s-.008-.04-.014-.051a.096.096 0 0 0-.087-.046c-.047 0-.083.018-.11.054s-.04.086-.04.149v.344h-.224v-.7h.224v.102c.034-.04.069-.07.107-.09s.08-.029.126-.029c.081 0 .142.025.184.075s.063.121.063.216zM15.13 28.507h.306l.213.499.214-.499h.306v.933h-.228v-.683l-.215.504h-.152l-.215-.504v.683h-.228zM16.707 29.125c-.047 0-.082.008-.106.024s-.035.039-.035.07c0 .029.009.051.029.067s.045.024.079.024c.042 0 .078-.015.106-.045s.044-.068.044-.114v-.026zm.342-.084v.399h-.225v-.104c-.03.043-.064.073-.101.093s-.083.029-.137.029c-.073 0-.131-.021-.176-.063s-.068-.097-.068-.165c0-.082.028-.142.084-.18s.145-.058.266-.058h.132v-.018c0-.035-.014-.061-.042-.077s-.072-.025-.131-.025c-.048 0-.093.005-.134.014s-.079.024-.114.043v-.171a1.354 1.354 0 0 1 .29-.035c.126 0 .217.025.273.075s.084.131.084.243zM17.804 28.762v.17c-.048-.02-.094-.035-.139-.045s-.087-.015-.126-.015c-.043 0-.074.005-.095.016s-.031.027-.031.049c0 .018.008.031.024.041s.044.017.084.021l.039.006c.115.015.192.039.231.072s.059.086.059.156c0 .075-.028.131-.083.169s-.137.056-.246.056a1.02 1.02 0 0 1-.295-.044v-.17a.634.634 0 0 0 .28.065c.044 0 .077-.006.099-.018s.033-.03.033-.054c0-.02-.008-.035-.023-.044s-.046-.017-.091-.023l-.039-.005c-.1-.012-.169-.035-.209-.069s-.06-.085-.06-.154c0-.074.025-.129.076-.165s.129-.054.234-.054c.041 0 .084.003.129.01s.095.016.149.029zM18.263 28.541v.199h.231v.16h-.231v.297c0 .032.006.054.019.066s.038.017.076.017h.115v.16h-.191c-.089 0-.151-.018-.189-.055s-.055-.1-.055-.188V28.9h-.111v-.16h.111v-.199zM19.33 29.088v.064h-.524c.006.052.025.092.057.118s.078.039.136.039c.047 0 .095-.007.144-.021s.1-.035.152-.064v.172a.948.948 0 0 1-.318.061c-.127 0-.225-.032-.296-.096s-.105-.154-.105-.271c0-.114.034-.204.104-.269s.164-.099.284-.099c.11 0 .198.033.264.1s.099.155.099.265zm-.23-.074c0-.042-.012-.076-.037-.102s-.057-.039-.097-.039c-.043 0-.079.012-.106.036s-.044.059-.051.105zM20.019 28.931a.294.294 0 0 0-.117-.027c-.058 0-.102.019-.133.056s-.046.089-.046.158v.323h-.224v-.7h.224v.115c.029-.046.061-.079.099-.1s.082-.032.134-.032l.024.001.039.004zM3.768 29.747v.147h-.124c-.031 0-.054.006-.066.017s-.019.031-.019.06v.049h.191v.16h-.191v.54h-.224v-.54h-.111v-.16h.111v-.049c0-.076.021-.133.064-.169s.108-.055.198-.055zM4.385 30.211a.294.294 0 0 0-.117-.027c-.058 0-.102.019-.133.056s-.046.089-.046.158v.323h-.224v-.7h.224v.115c.029-.046.061-.079.099-.1s.082-.032.134-.032l.024.001.039.004zM4.829 30.163c-.05 0-.088.018-.114.054s-.039.087-.039.154.013.119.039.154a.134.134 0 0 0 .114.053c.049 0 .086-.017.111-.053s.039-.087.039-.154-.013-.119-.039-.154a.129.129 0 0 0-.111-.054zm0-.16c.12 0 .214.033.282.098s.101.155.101.27c0 .115-.034.205-.101.27s-.162.097-.282.097c-.121 0-.216-.032-.284-.097s-.102-.155-.102-.27c0-.115.034-.205.102-.27s.162-.098.284-.098zM6.024 30.136c.028-.043.062-.076.101-.099s.082-.034.129-.034c.08 0 .142.025.184.075s.064.121.064.216v.426h-.225v-.381l.001-.026c0-.049-.008-.085-.022-.107s-.038-.034-.07-.034c-.043 0-.075.018-.099.053s-.035.085-.036.151v.344h-.225v-.365c0-.078-.007-.127-.02-.149s-.037-.034-.071-.034c-.043 0-.076.018-.099.053s-.035.085-.035.151v.344h-.225v-.7h.225v.102c.027-.039.059-.069.094-.089s.075-.03.118-.03c.049 0 .091.012.129.035s.065.056.084.099zM7.399 29.821v.199h.231v.16h-.231v.297c0 .032.006.054.019.066s.038.017.076.017h.115v.16h-.191c-.089 0-.151-.018-.189-.055s-.055-.1-.055-.188v-.297h-.111v-.16h.111v-.199zM8.47 30.294v.426h-.225v-.325c0-.061-.001-.104-.004-.126s-.008-.04-.014-.051a.096.096 0 0 0-.087-.046c-.047 0-.083.018-.11.054s-.04.086-.04.149v.344h-.224v-.973h.224v.375c.034-.04.069-.07.107-.09s.08-.029.126-.029c.081 0 .142.025.184.075s.063.121.063.216zM9.376 30.368v.064h-.524c.006.052.025.092.057.118s.078.039.136.039c.047 0 .095-.007.144-.021s.1-.035.152-.064v.172a.948.948 0 0 1-.318.061c-.127 0-.225-.032-.296-.096s-.105-.154-.105-.271c0-.114.034-.204.104-.269s.164-.099.284-.099c.11 0 .198.033.264.1s.099.155.099.265zm-.23-.074c0-.042-.012-.076-.037-.102s-.057-.039-.097-.039c-.043 0-.079.012-.106.036s-.044.059-.051.105zM10.002 29.787h.269l.339.64v-.64h.228v.933h-.269l-.339-.64v.64h-.228zM11.396 30.163c-.05 0-.088.018-.114.054s-.039.087-.039.154.013.119.039.154a.134.134 0 0 0 .114.053c.049 0 .086-.017.111-.053s.039-.087.039-.154-.013-.119-.039-.154a.129.129 0 0 0-.111-.054zm0-.16c.12 0 .214.033.282.098s.101.155.101.27c0 .115-.034.205-.101.27s-.162.097-.282.097c-.121 0-.216-.032-.284-.097s-.102-.155-.102-.27c0-.115.034-.205.102-.27s.162-.098.284-.098zM11.934 30.447v-.427h.225v.07l-.001.143-.001.114c0 .019.001.098.004.122a.135.135 0 0 0 .015.054c.009.015.022.026.036.034s.032.011.051.011c.047 0 .083-.018.11-.054s.04-.085.04-.149v-.346h.224v.7h-.224v-.101c-.034.041-.07.071-.107.091s-.079.029-.125.029c-.081 0-.142-.025-.184-.074s-.064-.122-.064-.216zM13.557 30.294v.426h-.225v-.326c0-.06-.001-.102-.004-.125s-.008-.04-.014-.051a.096.096 0 0 0-.087-.046c-.047 0-.083.018-.11.054s-.04.086-.04.149v.344h-.224v-.7h.224v.102c.034-.04.069-.07.107-.09s.08-.029.126-.029c.081 0 .142.025.184.075s.063.121.063.216zM14.22 29.787h.399c.119 0 .209.026.273.079s.096.128.096.225c0 .098-.032.173-.096.226s-.154.079-.273.079h-.159v.324h-.24zm.24.174v.261h.134c.047 0 .082-.011.108-.034s.039-.055.039-.096c0-.042-.013-.074-.039-.096s-.061-.034-.108-.034zM15.669 30.211a.294.294 0 0 0-.117-.027c-.058 0-.102.019-.133.056s-.046.089-.046.158v.323h-.224v-.7h.224v.115c.029-.046.061-.079.099-.1s.082-.032.134-.032l.024.001.039.004zM16.113 30.163c-.05 0-.087.018-.114.054s-.039.087-.039.154.013.119.039.154a.134.134 0 0 0 .114.053c.049 0 .086-.017.111-.053s.039-.087.039-.154-.013-.119-.039-.154a.129.129 0 0 0-.111-.054zm0-.16c.12 0 .214.033.282.098s.101.155.101.27c0 .115-.034.205-.101.27s-.162.097-.282.097c-.121 0-.216-.032-.284-.097s-.102-.155-.102-.27c0-.115.034-.205.102-.27s.162-.098.284-.098zM16.659 30.02h.224v.687c0 .094-.023.165-.068.215s-.11.074-.196.074h-.111v-.147h.039c.042 0 .071-.01.087-.029s.024-.057.024-.114zm0-.273h.224v.183h-.224zM17.796 30.368v.064h-.524c.006.052.025.092.057.118s.078.039.136.039c.047 0 .095-.007.144-.021s.1-.035.152-.064v.172a.948.948 0 0 1-.318.061c-.127 0-.225-.032-.296-.096s-.105-.154-.105-.271c0-.114.034-.204.104-.269s.164-.099.284-.099c.11 0 .198.033.264.1s.099.155.099.265zm-.23-.074c0-.042-.012-.076-.037-.102s-.057-.039-.097-.039c-.043 0-.079.012-.106.036s-.044.059-.051.105zM18.531 30.042v.182c-.03-.021-.061-.036-.091-.046s-.062-.015-.095-.015c-.063 0-.111.018-.146.055s-.052.087-.052.153c0 .065.017.116.052.153s.084.054.146.054a.303.303 0 0 0 .186-.061v.183a.666.666 0 0 1-.215.039c-.126 0-.225-.032-.296-.097s-.106-.155-.106-.27c0-.116.035-.206.106-.271s.17-.097.296-.097a.567.567 0 0 1 .215.039zM18.969 29.821v.199h.231v.16h-.231v.297c0 .032.006.054.019.066s.038.017.076.017h.115v.16h-.191c-.089 0-.151-.018-.189-.055s-.055-.1-.055-.188v-.297h-.111v-.16h.111v-.199z"/></symbol></defs></svg>