<svg aria-hidden="true" style="position: absolute; width: 0; height: 0; overflow: hidden;" version="1.1" xmlns="http://www.w3.org/2000/svg" xmlns:xlink="http://www.w3.org/1999/xlink">
<defs>
<symbol id="icon-noun-search-1491345" viewBox="0 0 32 32">
<path d="M13.21 3.328c-3.968 0-7.194 3.226-7.194 7.194s3.226 7.194 7.194 7.194c1.894 0 3.61-0.742 4.89-1.92l7.27 7.27c0.051 0.051 0.128 0.077 0.179 0.077s0.128-0.026 0.179-0.077c0.102-0.102 0.102-0.256 0-0.358l-7.27-7.296c1.203-1.28 1.92-2.995 1.92-4.89 0.026-3.968-3.2-7.194-7.168-7.194zM17.997 15.181c-0.026 0-0.051 0.026-0.077 0.051s-0.026 0.051-0.051 0.077c-1.203 1.178-2.842 1.894-4.659 1.894-3.686 0-6.682-2.995-6.682-6.682s2.995-6.682 6.682-6.682c3.686 0 6.682 2.995 6.682 6.682 0 1.818-0.717 3.456-1.894 4.659z"></path>
<path d="M13.21 4.557c-0.154 0-0.256 0.102-0.256 0.256s0.102 0.256 0.256 0.256c2.995 0 5.453 2.432 5.453 5.453 0 0.154 0.102 0.256 0.256 0.256s0.256-0.102 0.256-0.256c-0-3.277-2.688-5.965-5.965-5.965z"></path>
<path d="M4.058 29.389c-0.044 0.023-0.091 0.040-0.139 0.051s-0.098 0.018-0.15 0.018c-0.155 0-0.278-0.043-0.369-0.13s-0.136-0.205-0.136-0.354c0-0.149 0.045-0.267 0.136-0.354s0.214-0.131 0.369-0.131c0.052 0 0.102 0.006 0.15 0.018s0.094 0.029 0.139 0.051v0.193c-0.045-0.030-0.089-0.052-0.132-0.066s-0.089-0.021-0.137-0.021c-0.086 0-0.153 0.028-0.202 0.083s-0.074 0.131-0.074 0.227c0 0.096 0.024 0.172 0.074 0.227s0.116 0.082 0.202 0.082c0.048 0 0.094-0.007 0.137-0.021s0.087-0.037 0.132-0.067z"></path>
<path d="M4.767 28.931c-0.020-0.009-0.040-0.016-0.059-0.020s-0.038-0.007-0.058-0.007c-0.058 0-0.102 0.019-0.133 0.056s-0.046 0.089-0.046 0.158v0.323h-0.224v-0.7h0.224v0.115c0.029-0.046 0.061-0.079 0.099-0.1s0.082-0.032 0.134-0.032c0.008 0 0.016 0.001 0.024 0.001s0.022 0.002 0.039 0.004z"></path>
<path d="M5.577 29.088v0.064h-0.524c0.006 0.052 0.025 0.092 0.057 0.118s0.078 0.039 0.136 0.039c0.047 0 0.095-0.007 0.144-0.021s0.1-0.035 0.152-0.064v0.172c-0.053 0.020-0.106 0.035-0.159 0.045s-0.106 0.016-0.159 0.016c-0.127 0-0.225-0.032-0.296-0.096s-0.105-0.154-0.105-0.271c0-0.114 0.034-0.204 0.104-0.269s0.164-0.099 0.284-0.099c0.11 0 0.198 0.033 0.264 0.1s0.099 0.155 0.099 0.265zM5.347 29.014c0-0.042-0.013-0.076-0.037-0.102s-0.057-0.039-0.097-0.039c-0.043 0-0.079 0.012-0.106 0.036s-0.044 0.059-0.051 0.105z"></path>
<path d="M6.060 29.125c-0.047 0-0.082 0.008-0.106 0.024s-0.035 0.039-0.035 0.070c0 0.029 0.009 0.051 0.029 0.067s0.045 0.024 0.079 0.024c0.042 0 0.078-0.015 0.106-0.045s0.044-0.068 0.044-0.114v-0.026zM6.402 29.041v0.399h-0.225v-0.104c-0.030 0.043-0.064 0.073-0.101 0.093s-0.083 0.029-0.137 0.029c-0.072 0-0.131-0.021-0.176-0.063s-0.068-0.097-0.068-0.165c0-0.082 0.028-0.142 0.084-0.18s0.145-0.058 0.266-0.058h0.132v-0.018c0-0.035-0.014-0.061-0.042-0.077s-0.072-0.025-0.131-0.025c-0.048 0-0.093 0.005-0.134 0.014s-0.079 0.024-0.114 0.043v-0.171c0.048-0.011 0.095-0.020 0.144-0.026s0.097-0.009 0.146-0.009c0.126 0 0.217 0.025 0.273 0.075s0.084 0.131 0.084 0.243z"></path>
<path d="M6.855 28.541v0.199h0.231v0.16h-0.231v0.297c0 0.032 0.006 0.054 0.019 0.066s0.038 0.017 0.076 0.017h0.115v0.16h-0.191c-0.089 0-0.151-0.018-0.189-0.055s-0.055-0.1-0.055-0.188v-0.297h-0.111v-0.16h0.111v-0.199z"></path>
<path d="M7.921 29.088v0.064h-0.524c0.006 0.052 0.025 0.092 0.057 0.118s0.078 0.039 0.136 0.039c0.047 0 0.095-0.007 0.144-0.021s0.1-0.035 0.152-0.064v0.172c-0.053 0.020-0.106 0.035-0.159 0.045s-0.106 0.016-0.159 0.016c-0.127 0-0.225-0.032-0.296-0.096s-0.105-0.154-0.105-0.271c0-0.114 0.034-0.204 0.104-0.269s0.164-0.099 0.284-0.099c0.11 0 0.198 0.033 0.264 0.1s0.099 0.155 0.099 0.265zM7.691 29.014c0-0.042-0.013-0.076-0.037-0.102s-0.057-0.039-0.097-0.039c-0.043 0-0.079 0.012-0.106 0.036s-0.044 0.059-0.051 0.105z"></path>
<path d="M8.566 28.842v-0.375h0.225v0.973h-0.225v-0.101c-0.031 0.041-0.064 0.072-0.101 0.091s-0.080 0.029-0.129 0.029c-0.086 0-0.157-0.034-0.212-0.103s-0.083-0.157-0.083-0.264c0-0.108 0.027-0.196 0.083-0.265s0.126-0.103 0.212-0.103c0.049 0 0.091 0.010 0.129 0.029s0.072 0.050 0.102 0.090zM8.419 29.296c0.047 0 0.084-0.017 0.109-0.052s0.038-0.086 0.038-0.153c0-0.067-0.013-0.117-0.038-0.152s-0.062-0.053-0.109-0.053c-0.048 0-0.084 0.018-0.109 0.053s-0.038 0.086-0.038 0.152c0 0.067 0.012 0.118 0.038 0.153s0.062 0.052 0.109 0.052z"></path>
<path d="M9.824 29.296c0.048 0 0.085-0.017 0.11-0.052s0.038-0.086 0.038-0.153c0-0.067-0.013-0.117-0.038-0.152s-0.062-0.053-0.11-0.053c-0.048 0-0.085 0.018-0.111 0.053s-0.038 0.086-0.038 0.152c0 0.066 0.012 0.117 0.038 0.152s0.063 0.053 0.111 0.053zM9.676 28.842c0.031-0.040 0.065-0.070 0.102-0.090s0.081-0.029 0.129-0.029c0.087 0 0.158 0.034 0.213 0.103s0.083 0.157 0.083 0.265c0 0.108-0.028 0.196-0.083 0.264s-0.126 0.103-0.213 0.103c-0.049 0-0.092-0.010-0.129-0.029s-0.071-0.050-0.102-0.091v0.101h-0.224v-0.973h0.224z"></path>
<path d="M10.276 28.74h0.224l0.189 0.475 0.16-0.475h0.224l-0.294 0.766c-0.030 0.078-0.064 0.132-0.104 0.163s-0.091 0.047-0.156 0.047h-0.13v-0.147h0.070c0.038 0 0.066-0.006 0.083-0.019s0.031-0.033 0.041-0.064l0.006-0.019z"></path>
<path d="M11.659 28.507h0.24v0.933h-0.24z"></path>
<path d="M12.69 28.762v0.182c-0.030-0.021-0.061-0.036-0.091-0.046s-0.062-0.015-0.095-0.015c-0.063 0-0.111 0.018-0.146 0.055s-0.052 0.087-0.052 0.153c0 0.065 0.017 0.116 0.052 0.153s0.084 0.054 0.146 0.054c0.035 0 0.068-0.005 0.099-0.015s0.060-0.026 0.087-0.046v0.183c-0.035 0.013-0.070 0.022-0.106 0.029s-0.072 0.010-0.109 0.010c-0.126 0-0.225-0.032-0.296-0.097s-0.106-0.155-0.106-0.27c0-0.116 0.035-0.206 0.106-0.271s0.17-0.097 0.296-0.097c0.037 0 0.073 0.003 0.109 0.010s0.071 0.016 0.106 0.029z"></path>
<path d="M13.216 28.883c-0.050 0-0.088 0.018-0.114 0.054s-0.039 0.087-0.039 0.154 0.013 0.119 0.039 0.154c0.026 0.035 0.064 0.053 0.114 0.053 0.049 0 0.086-0.017 0.111-0.053s0.039-0.087 0.039-0.154-0.013-0.119-0.039-0.154c-0.026-0.036-0.063-0.054-0.111-0.054zM13.216 28.723c0.12 0 0.214 0.033 0.282 0.098s0.101 0.155 0.101 0.27c0 0.115-0.034 0.205-0.101 0.27s-0.162 0.097-0.282 0.097c-0.121 0-0.216-0.032-0.284-0.097s-0.102-0.155-0.102-0.27c0-0.115 0.034-0.205 0.102-0.27s0.162-0.098 0.284-0.098z"></path>
<path d="M14.466 29.014v0.426h-0.225v-0.326c0-0.060-0.001-0.102-0.004-0.125s-0.008-0.040-0.014-0.051c-0.009-0.014-0.021-0.025-0.036-0.034s-0.032-0.012-0.051-0.012c-0.047 0-0.083 0.018-0.11 0.054s-0.040 0.086-0.040 0.149v0.344h-0.224v-0.7h0.224v0.102c0.034-0.040 0.069-0.070 0.107-0.090s0.080-0.029 0.126-0.029c0.081 0 0.142 0.025 0.184 0.075s0.063 0.121 0.063 0.216z"></path>
<path d="M15.13 28.507h0.306l0.213 0.499 0.214-0.499h0.306v0.933h-0.228v-0.683l-0.215 0.504h-0.152l-0.215-0.504v0.683h-0.228z"></path>
<path d="M16.707 29.125c-0.047 0-0.082 0.008-0.106 0.024s-0.035 0.039-0.035 0.070c0 0.029 0.009 0.051 0.029 0.067s0.045 0.024 0.079 0.024c0.042 0 0.078-0.015 0.106-0.045s0.044-0.068 0.044-0.114v-0.026zM17.049 29.041v0.399h-0.225v-0.104c-0.030 0.043-0.064 0.073-0.101 0.093s-0.083 0.029-0.137 0.029c-0.073 0-0.131-0.021-0.176-0.063s-0.068-0.097-0.068-0.165c0-0.082 0.028-0.142 0.084-0.18s0.145-0.058 0.266-0.058h0.132v-0.018c0-0.035-0.014-0.061-0.042-0.077s-0.072-0.025-0.131-0.025c-0.048 0-0.093 0.005-0.134 0.014s-0.079 0.024-0.114 0.043v-0.171c0.047-0.011 0.095-0.020 0.144-0.026s0.097-0.009 0.146-0.009c0.126 0 0.217 0.025 0.273 0.075s0.084 0.131 0.084 0.243z"></path>
<path d="M17.804 28.762v0.17c-0.048-0.020-0.094-0.035-0.139-0.045s-0.087-0.015-0.126-0.015c-0.043 0-0.074 0.005-0.095 0.016s-0.031 0.027-0.031 0.049c0 0.018 0.008 0.031 0.024 0.041s0.044 0.017 0.084 0.021l0.039 0.006c0.115 0.015 0.192 0.039 0.231 0.072s0.059 0.086 0.059 0.156c0 0.075-0.028 0.131-0.083 0.169s-0.137 0.056-0.246 0.056c-0.047 0-0.095-0.004-0.144-0.011s-0.1-0.018-0.151-0.033v-0.17c0.044 0.022 0.090 0.038 0.136 0.049s0.095 0.016 0.144 0.016c0.044 0 0.077-0.006 0.099-0.018s0.033-0.030 0.033-0.054c0-0.020-0.008-0.035-0.023-0.044s-0.046-0.017-0.091-0.023l-0.039-0.005c-0.1-0.012-0.169-0.035-0.209-0.069s-0.060-0.085-0.060-0.154c0-0.074 0.025-0.129 0.076-0.165s0.129-0.054 0.234-0.054c0.041 0 0.084 0.003 0.129 0.010s0.095 0.016 0.149 0.029z"></path>
<path d="M18.263 28.541v0.199h0.231v0.16h-0.231v0.297c0 0.032 0.006 0.054 0.019 0.066s0.038 0.017 0.076 0.017h0.115v0.16h-0.191c-0.089 0-0.151-0.018-0.189-0.055s-0.055-0.1-0.055-0.188v-0.297h-0.111v-0.16h0.111v-0.199z"></path>
<path d="M19.33 29.088v0.064h-0.524c0.006 0.052 0.025 0.092 0.057 0.118s0.078 0.039 0.136 0.039c0.047 0 0.095-0.007 0.144-0.021s0.1-0.035 0.152-0.064v0.172c-0.053 0.020-0.106 0.035-0.159 0.045s-0.106 0.016-0.159 0.016c-0.127 0-0.225-0.032-0.296-0.096s-0.105-0.154-0.105-0.271c0-0.114 0.034-0.204 0.104-0.269s0.164-0.099 0.284-0.099c0.11 0 0.198 0.033 0.264 0.1s0.099 0.155 0.099 0.265zM19.1 29.014c0-0.042-0.012-0.076-0.037-0.102s-0.057-0.039-0.097-0.039c-0.043 0-0.079 0.012-0.106 0.036s-0.044 0.059-0.051 0.105z"></path>
<path d="M20.019 28.931c-0.020-0.009-0.040-0.016-0.059-0.020s-0.038-0.007-0.058-0.007c-0.058 0-0.102 0.019-0.133 0.056s-0.046 0.089-0.046 0.158v0.323h-0.224v-0.7h0.224v0.115c0.029-0.046 0.061-0.079 0.099-0.1s0.082-0.032 0.134-0.032c0.008 0 0.016 0.001 0.024 0.001s0.022 0.002 0.039 0.004z"></path>
<path d="M3.768 29.747v0.147h-0.124c-0.031 0-0.054 0.006-0.066 0.017s-0.019 0.031-0.019 0.060v0.049h0.191v0.16h-0.191v0.54h-0.224v-0.54h-0.111v-0.16h0.111v-0.049c0-0.076 0.021-0.133 0.064-0.169s0.108-0.055 0.198-0.055z"></path>
<path d="M4.385 30.211c-0.020-0.009-0.040-0.016-0.059-0.020s-0.038-0.007-0.058-0.007c-0.058 0-0.102 0.019-0.133 0.056s-0.046 0.089-0.046 0.158v0.323h-0.224v-0.7h0.224v0.115c0.029-0.046 0.061-0.079 0.099-0.1s0.082-0.032 0.134-0.032c0.008 0 0.016 0.001 0.024 0.001s0.022 0.002 0.039 0.004z"></path>
<path d="M4.829 30.163c-0.050 0-0.088 0.018-0.114 0.054s-0.039 0.087-0.039 0.154 0.013 0.119 0.039 0.154c0.026 0.035 0.064 0.053 0.114 0.053 0.049 0 0.086-0.017 0.111-0.053s0.039-0.087 0.039-0.154-0.013-0.119-0.039-0.154c-0.026-0.036-0.063-0.054-0.111-0.054zM4.829 30.003c0.12 0 0.214 0.033 0.282 0.098s0.101 0.155 0.101 0.27c0 0.115-0.034 0.205-0.101 0.27s-0.162 0.097-0.282 0.097c-0.121 0-0.216-0.032-0.284-0.097s-0.102-0.155-0.102-0.27c0-0.115 0.034-0.205 0.102-0.27s0.162-0.098 0.284-0.098z"></path>
<path d="M6.024 30.136c0.028-0.043 0.062-0.076 0.101-0.099s0.082-0.034 0.129-0.034c0.080 0 0.142 0.025 0.184 0.075s0.064 0.121 0.064 0.216v0.426h-0.225v-0.381c0-0.006 0.001-0.015 0.001-0.026 0-0.049-0.008-0.085-0.022-0.107s-0.038-0.034-0.070-0.034c-0.043 0-0.075 0.018-0.099 0.053s-0.035 0.085-0.036 0.151v0.344h-0.225v-0.365c0-0.078-0.007-0.127-0.020-0.149s-0.037-0.034-0.071-0.034c-0.043 0-0.076 0.018-0.099 0.053s-0.035 0.085-0.035 0.151v0.344h-0.225v-0.7h0.225v0.102c0.027-0.039 0.059-0.069 0.094-0.089s0.075-0.030 0.118-0.030c0.049 0 0.091 0.012 0.129 0.035s0.065 0.056 0.084 0.099z"></path>
<path d="M7.399 29.821v0.199h0.231v0.16h-0.231v0.297c0 0.032 0.006 0.054 0.019 0.066s0.038 0.017 0.076 0.017h0.115v0.16h-0.191c-0.089 0-0.151-0.018-0.189-0.055s-0.055-0.1-0.055-0.188v-0.297h-0.111v-0.16h0.111v-0.199z"></path>
<path d="M8.47 30.294v0.426h-0.225v-0.325c0-0.061-0.001-0.104-0.004-0.126s-0.008-0.040-0.014-0.051c-0.009-0.014-0.021-0.025-0.036-0.034s-0.032-0.012-0.051-0.012c-0.047 0-0.083 0.018-0.11 0.054s-0.040 0.086-0.040 0.149v0.344h-0.224v-0.973h0.224v0.375c0.034-0.040 0.069-0.070 0.107-0.090s0.080-0.029 0.126-0.029c0.081 0 0.142 0.025 0.184 0.075s0.063 0.121 0.063 0.216z"></path>
<path d="M9.376 30.368v0.064h-0.524c0.006 0.052 0.025 0.092 0.057 0.118s0.078 0.039 0.136 0.039c0.047 0 0.095-0.007 0.144-0.021s0.1-0.035 0.152-0.064v0.172c-0.053 0.020-0.106 0.035-0.159 0.045s-0.106 0.016-0.159 0.016c-0.127 0-0.225-0.032-0.296-0.096s-0.105-0.154-0.105-0.271c0-0.114 0.034-0.204 0.104-0.269s0.164-0.099 0.284-0.099c0.11 0 0.198 0.033 0.264 0.1s0.099 0.155 0.099 0.265zM9.146 30.294c0-0.042-0.012-0.076-0.037-0.102s-0.057-0.039-0.097-0.039c-0.043 0-0.079 0.012-0.106 0.036s-0.044 0.059-0.051 0.105z"></path>
<path d="M10.002 29.787h0.269l0.339 0.64v-0.64h0.228v0.933h-0.269l-0.339-0.64v0.64h-0.228z"></path>
<path d="M11.396 30.163c-0.050 0-0.088 0.018-0.114 0.054s-0.039 0.087-0.039 0.154 0.013 0.119 0.039 0.154c0.026 0.035 0.064 0.053 0.114 0.053 0.049 0 0.086-0.017 0.111-0.053s0.039-0.087 0.039-0.154-0.013-0.119-0.039-0.154c-0.026-0.036-0.063-0.054-0.111-0.054zM11.396 30.003c0.12 0 0.214 0.033 0.282 0.098s0.101 0.155 0.101 0.27c0 0.115-0.034 0.205-0.101 0.27s-0.162 0.097-0.282 0.097c-0.121 0-0.216-0.032-0.284-0.097s-0.102-0.155-0.102-0.27c0-0.115 0.034-0.205 0.102-0.27s0.162-0.098 0.284-0.098z"></path>
<path d="M11.934 30.447v-0.427h0.225v0.070c0 0.038-0 0.086-0.001 0.143s-0.001 0.095-0.001 0.114 0.001 0.098 0.004 0.122c0.003 0.025 0.008 0.043 0.015 0.054 0.009 0.015 0.022 0.026 0.036 0.034s0.032 0.011 0.051 0.011c0.047 0 0.083-0.018 0.11-0.054s0.040-0.085 0.040-0.149v-0.346h0.224v0.7h-0.224v-0.101c-0.034 0.041-0.070 0.071-0.107 0.091s-0.079 0.029-0.125 0.029c-0.081 0-0.142-0.025-0.184-0.074s-0.064-0.122-0.064-0.216z"></path>
<path d="M13.557 30.294v0.426h-0.225v-0.326c0-0.060-0.001-0.102-0.004-0.125s-0.008-0.040-0.014-0.051c-0.009-0.014-0.021-0.025-0.036-0.034s-0.032-0.012-0.051-0.012c-0.047 0-0.083 0.018-0.11 0.054s-0.040 0.086-0.040 0.149v0.344h-0.224v-0.7h0.224v0.102c0.034-0.040 0.069-0.070 0.107-0.090s0.080-0.029 0.126-0.029c0.081 0 0.142 0.025 0.184 0.075s0.063 0.121 0.063 0.216z"></path>
<path d="M14.22 29.787h0.399c0.119 0 0.209 0.026 0.273 0.079s0.096 0.128 0.096 0.225c0 0.098-0.032 0.173-0.096 0.226s-0.154 0.079-0.273 0.079h-0.159v0.324h-0.24zM14.46 29.961v0.261h0.134c0.047 0 0.082-0.011 0.108-0.034s0.039-0.055 0.039-0.096c0-0.042-0.013-0.074-0.039-0.096s-0.061-0.034-0.108-0.034z"></path>
<path d="M15.669 30.211c-0.020-0.009-0.040-0.016-0.059-0.020s-0.038-0.007-0.058-0.007c-0.058 0-0.102 0.019-0.133 0.056s-0.046 0.089-0.046 0.158v0.323h-0.224v-0.7h0.224v0.115c0.029-0.046 0.061-0.079 0.099-0.1s0.082-0.032 0.134-0.032c0.008 0 0.016 0.001 0.024 0.001s0.022 0.002 0.039 0.004z"></path>
<path d="M16.113 30.163c-0.050 0-0.087 0.018-0.114 0.054s-0.039 0.087-0.039 0.154 0.013 0.119 0.039 0.154c0.026 0.035 0.064 0.053 0.114 0.053 0.049 0 0.086-0.017 0.111-0.053s0.039-0.087 0.039-0.154-0.013-0.119-0.039-0.154c-0.026-0.036-0.063-0.054-0.111-0.054zM16.113 30.003c0.12 0 0.214 0.033 0.282 0.098s0.101 0.155 0.101 0.27c0 0.115-0.034 0.205-0.101 0.27s-0.162 0.097-0.282 0.097c-0.121 0-0.216-0.032-0.284-0.097s-0.102-0.155-0.102-0.27c0-0.115 0.034-0.205 0.102-0.27s0.162-0.098 0.284-0.098z"></path>
<path d="M16.659 30.020h0.224v0.687c0 0.094-0.023 0.165-0.068 0.215s-0.11 0.074-0.196 0.074h-0.111v-0.147h0.039c0.042 0 0.071-0.010 0.087-0.029s0.024-0.057 0.024-0.114zM16.659 29.747h0.224v0.183h-0.224z"></path>
<path d="M17.796 30.368v0.064h-0.524c0.006 0.052 0.025 0.092 0.057 0.118s0.078 0.039 0.136 0.039c0.047 0 0.095-0.007 0.144-0.021s0.1-0.035 0.152-0.064v0.172c-0.053 0.020-0.106 0.035-0.159 0.045s-0.106 0.016-0.159 0.016c-0.127 0-0.225-0.032-0.296-0.096s-0.105-0.154-0.105-0.271c0-0.114 0.034-0.204 0.104-0.269s0.164-0.099 0.284-0.099c0.11 0 0.198 0.033 0.264 0.1s0.099 0.155 0.099 0.265zM17.566 30.294c0-0.042-0.012-0.076-0.037-0.102s-0.057-0.039-0.097-0.039c-0.043 0-0.079 0.012-0.106 0.036s-0.044 0.059-0.051 0.105z"></path>
<path d="M18.531 30.042v0.182c-0.030-0.021-0.061-0.036-0.091-0.046s-0.062-0.015-0.095-0.015c-0.063 0-0.111 0.018-0.146 0.055s-0.052 0.087-0.052 0.153c0 0.065 0.017 0.116 0.052 0.153s0.084 0.054 0.146 0.054c0.035 0 0.068-0.005 0.099-0.015s0.060-0.026 0.087-0.046v0.183c-0.035 0.013-0.070 0.022-0.106 0.029s-0.072 0.010-0.109 0.010c-0.126 0-0.225-0.032-0.296-0.097s-0.106-0.155-0.106-0.27c0-0.116 0.035-0.206 0.106-0.271s0.17-0.097 0.296-0.097c0.037 0 0.073 0.003 0.109 0.010s0.071 0.016 0.106 0.029z"></path>
<path d="M18.969 29.821v0.199h0.231v0.16h-0.231v0.297c0 0.032 0.006 0.054 0.019 0.066s0.038 0.017 0.076 0.017h0.115v0.16h-0.191c-0.089 0-0.151-0.018-0.189-0.055s-0.055-0.1-0.055-0.188v-0.297h-0.111v-0.16h0.111v-0.199z"></path>
</symbol>
</defs>
</svg>
